Coordinates
version=1
nRows=21
nColumns=12
inDegrees=yes

Units are S.I. units (second, meters, Newtons, ...)
Angles are in degrees

endheader
time	SC_y	SC_z	SC_x	AC_y	AC_z	AC_x	GH_y	GH_z	GH_yy	EL_x	PS_y
       0.0              -39.51          24.29          18.34          43.64         -3.188         -13.98         -47.72          15.48          149.8          109.0          155.3
    0.0123              -39.51          24.29          18.34          43.64         -3.188         -13.98         -47.73          15.49          149.8          109.0          155.3
   0.02461              -39.51          24.29          18.34          43.64         -3.188         -13.97         -47.74           15.5          149.8          109.0          155.3
   0.03691               -39.5          24.28          18.35          43.65         -3.187         -13.97         -47.75          15.51          149.8          109.0          155.3
   0.04921               -39.5          24.28          18.36          43.65         -3.187         -13.97         -47.76          15.52          149.8          109.0          155.3
   0.06152               -39.5          24.28          18.36          43.66         -3.186         -13.97         -47.77          15.53          149.8          109.0          155.3
   0.07382               -39.5          24.28          18.37          43.66         -3.185         -13.97         -47.78          15.54          149.8          109.0          155.3
   0.08612               -39.5          24.28          18.37          43.67         -3.185         -13.97         -47.79          15.55          149.8          109.0          155.3
   0.09843              -39.49          24.28          18.38          43.67         -3.184         -13.97          -47.8          15.56          149.8          109.0          155.2
    0.1107              -39.49          24.28          18.39          43.68         -3.183         -13.97         -47.81          15.58          149.8          109.0          155.2
     0.123              -39.49          24.28           18.4          43.68         -3.183         -13.97         -47.83          15.59          149.8          109.0          155.2
    0.1353              -39.49          24.28          18.41          43.69         -3.182         -13.96         -47.84          15.61          149.8          109.0          155.2
    0.1476              -39.48          24.28          18.42           43.7         -3.181         -13.96         -47.86          15.63          149.8          109.0          155.2
    0.1599              -39.48          24.28          18.43          43.71          -3.18         -13.96         -47.87          15.65          149.8          109.0          155.2
    0.1722              -39.48          24.28          18.44          43.72         -3.179         -13.96         -47.89          15.67          149.8          109.0          155.1
    0.1845              -39.47          24.27          18.45          43.73         -3.178         -13.96         -47.91          15.69          149.8          109.0          155.1
    0.1969              -39.47          24.27          18.46          43.74         -3.177         -13.95         -47.93          15.71          149.8          109.0          155.1
    0.2092              -39.46          24.27          18.48          43.75         -3.175         -13.95         -47.96          15.74          149.8          109.0          155.1
    0.2215              -39.46          24.27          18.49          43.76         -3.174         -13.95         -47.98          15.77          149.8          109.0          155.0
    0.2338              -39.45          24.27          18.51          43.77         -3.172         -13.95         -48.01           15.8          149.8          109.0          155.0
    0.2461              -39.45          24.27          18.53          43.79          -3.17         -13.94         -48.04          15.83          149.8          109.0          155.0
